<svg xmlns="http://www.w3.org/2000/svg" viewBox="0 0 190.77 190.77"><defs><style>.cls-1{fill:#dc4182;}.cls-2{fill:#d8689b;}.cls-3{fill:#3f4439;}.cls-4{fill:#e7e6d4;}</style></defs><title>flower_fuschia</title><g id="Layer_2" data-name="Layer 2"><g id="Layer_1-2" data-name="Layer 1"><path class="cls-1" d="M84.79,95.08a2.22,2.22,0,0,1,0,.68c-.57,3.23-8.81,5.92-11.43,7.47-4.42,2.61-8.95,5.06-13.59,7.25-8.56,4-17.36,7.92-26.68,9.81-6.49,1.31-13.82,2.14-20.17-.23-6.82-2.55-10.1-9.2-11.9-15.87A36.54,36.54,0,0,1,.54,89.28c1.89-12.48,10.92-20.41,23.76-20,11.06.39,22,4.47,31.91,9.14,5.7,2.67,11.13,5.82,16.69,8.74C76,88.84,84.24,90.87,84.79,95.08ZM106,95a2.16,2.16,0,0,0,0,.67c.57,3.23,8.81,5.92,11.43,7.47,4.42,2.61,8.94,5.06,13.59,7.26,8.56,4,17.36,7.91,26.68,9.8,6.49,1.32,13.82,2.14,20.17-.23,6.82-2.54,10.1-9.2,11.9-15.87a36.49,36.49,0,0,0,.47-14.9c-1.89-12.49-10.92-20.42-23.76-20-11.06.39-22,4.48-31.92,9.14-5.69,2.68-11.12,5.82-16.68,8.75C114.76,88.74,106.53,90.77,106,95ZM73.54,105.16c-6,1.77-12.11,3.29-18.06,5.33C45.12,114,34.42,118.72,26.2,126.14,16.67,134.75,15.7,146.73,23,157a36.53,36.53,0,0,0,10.71,10.38c5.94,3.54,12.92,6,19.59,3.11,6.21-2.71,10.91-8.41,14.65-13.87,5.38-7.84,9-16.75,12.33-25.61,1.81-4.81,3.36-9.72,4.71-14.67.8-2.93,4.85-10.6,3-13.32a2.39,2.39,0,0,0-.46-.49C84.23,99.9,76.91,104.17,73.54,105.16Zm29.17-17.43a2.18,2.18,0,0,0,.48.48c2.66,1.92,10.45-1.89,13.4-2.6,5-1.2,10-2.59,14.82-4.25,9-3,18-6.39,26-11.52,5.58-3.58,11.41-8.09,14.32-14.21,3.13-6.57.85-13.63-2.5-19.68a36.45,36.45,0,0,0-10-11c-10-7.65-22-7.06-30.95,2.2-7.67,8-12.69,18.53-16.56,28.77-2.22,5.88-3.93,11.92-5.89,17.89C104.68,77.13,100.18,84.31,102.71,87.73Zm-17.47-14c-1.87-6-3.5-12.06-5.64-18-3.72-10.3-8.59-20.92-16.14-29-8.78-9.4-20.77-10.15-30.92-2.65A36.54,36.54,0,0,0,22.34,35c-3.43,6-5.81,13-2.78,19.64,2.83,6.16,8.6,10.75,14.12,14.41,7.94,5.24,16.9,8.71,25.81,11.89,4.85,1.73,9.78,3.19,14.76,4.46,2.94.75,10.67,4.66,13.36,2.78a2,2,0,0,0,.49-.47C90.68,84.31,86.28,77.07,85.24,73.71Zm17.93,28.87a2.19,2.19,0,0,0-.47.49c-1.88,2.69,2.06,10.41,2.82,13.36,1.28,5,2.76,9.9,4.5,14.73,3.2,8.91,6.69,17.87,12,25.78,3.67,5.52,8.28,11.28,14.45,14.09,6.63,3,13.65.62,19.63-2.84A36.51,36.51,0,0,0,166.92,158c7.47-10.18,6.68-22.17-2.73-30.92-8.11-7.53-18.74-12.37-29.05-16.06-5.92-2.12-12-3.73-18-5.59C113.79,104.37,106.54,100,103.17,102.58Zm.39-29.68c2.93-5.56,6.07-11,8.75-16.69,4.66-9.9,8.75-20.85,9.14-31.91.45-12.84-7.48-21.87-20-23.76A36.49,36.49,0,0,0,86.58,1c-6.67,1.8-13.32,5.08-15.87,11.9-2.37,6.35-1.55,13.68-.23,20.17,1.89,9.32,5.76,18.12,9.81,26.68,2.19,4.64,4.64,9.17,7.25,13.59C89.09,76,91.78,84.21,95,84.78a1.94,1.94,0,0,0,.68,0C99.9,84.24,101.93,76,103.56,72.9ZM95.78,106a2.16,2.16,0,0,0-.67,0c-3.24.57-5.92,8.81-7.47,11.43-2.61,4.42-5.06,9-7.26,13.59-4,8.56-7.92,17.36-9.8,26.68-1.32,6.49-2.14,13.82.23,20.17,2.54,6.82,9.2,10.1,15.87,11.9a36.49,36.49,0,0,0,14.9.47c12.49-1.9,20.42-10.92,20-23.76-.39-11.06-4.48-22-9.14-31.91-2.68-5.7-5.82-11.13-8.75-16.69C102,114.76,100,106.53,95.78,106Z"/><path class="cls-2" d="M86.17,95.29s-63.63,30.35-63.63.06S86.17,95.29,86.17,95.29Zm18.43-.1s63.63,30.35,63.63.07S104.6,95.19,104.6,95.19ZM43.06,146.06c21.07,21.75,45.64-44.33,45.64-44.33S22,124.31,43.06,146.06Zm58.8-57.23S168.68,66.34,147.6,44.6,101.86,88.83,101.86,88.83Zm-58-44.91c-21.39,21.45,45.1,44.89,45.1,44.89S65.21,22.48,43.83,43.92Zm58.22,57.83s23.62,66.42,45,45S102.05,101.75,102.05,101.75ZM95.41,22.54c-30.28,0,.07,63.63.07,63.63S125.7,22.54,95.41,22.54Zm.17,82.06s-30.35,63.63-.07,63.63S95.58,104.6,95.58,104.6Z"/><path class="cls-3" d="M124.17,96.44C124,112,108.55,125,93.37,123.77,74.75,122.29,63.24,104,69.8,86.22c3.3-9,10.58-16.43,20.33-17.66C107,66.42,124.4,80.17,124.17,96.44Z"/><path class="cls-4" d="M82.08,82.92a18.23,18.23,0,0,1,11.24-4.16c4.73,0,9.29,2.13,13.08,5.66a15.43,15.43,0,0,1,5.19,11.29,15.76,15.76,0,0,1-5,11.2,14.94,14.94,0,0,1-10.44,4.64,12,12,0,0,1-8.64-3.68,10.85,10.85,0,0,1,0-15.34,8.26,8.26,0,0,1,11.66,0,6.17,6.17,0,0,1,0,8.71,4.49,4.49,0,0,1-5.58.61,2.18,2.18,0,0,0-2.34,3.69,8.86,8.86,0,0,0,11-1.21,10.54,10.54,0,0,0,0-14.89,12.61,12.61,0,0,0-17.83,0,15.21,15.21,0,0,0,0,21.52,16.42,16.42,0,0,0,11.73,5A19.3,19.3,0,0,0,109.69,110,20.15,20.15,0,0,0,116,95.71a19.86,19.86,0,0,0-6.58-14.49,23.7,23.7,0,0,0-16.06-6.83,22.63,22.63,0,0,0-13.9,5.06,2.19,2.19,0,0,0,2.66,3.47Z"/></g></g></svg>