<svg xmlns="http://www.w3.org/2000/svg" xmlns:xlink="http://www.w3.org/1999/xlink" viewBox="0 0 600 400"><defs><style>.cls-1,.cls-10,.cls-3{fill:none;}.cls-2{clip-path:url(#clip-path);}.cls-10,.cls-3{stroke:#000;}.cls-4{fill:#bf0a30;}.cls-5{fill:#fff;}.cls-6{fill:#002868;}.cls-7{clip-path:url(#clip-path-2);}.cls-8{fill:#c60b1e;}.cls-9{fill:#ffc400;}.cls-10{stroke-miterlimit:10;stroke-width:2px;}</style><clipPath id="clip-path"><polygon class="cls-1" points="599.97 -0.47 2 403.2 2 -0.47 599.97 -0.47"/></clipPath><clipPath id="clip-path-2"><polygon class="cls-1" points="0 400 600 0 600 400 0 400"/></clipPath></defs><title>Artboard 1</title><g id="Layer_1" data-name="Layer 1"><g class="cls-2"><g id="imagebot_1" data-name="imagebot 1"><g id="imagebot_73" data-name="imagebot 73"><g id="imagebot_70" data-name="imagebot 70"><rect id="imagebot_71" data-name="imagebot 71" class="cls-3" x="2" y="-0.47" width="597.97" height="403.67"/></g><g id="imagebot_56" data-name="imagebot 56"><rect id="imagebot_69" data-name="imagebot 69" class="cls-4" x="2" y="370.74" width="597.97" height="32.46"/><rect id="imagebot_68" data-name="imagebot 68" class="cls-5" x="2" y="338.28" width="597.97" height="32.46"/><rect id="imagebot_67" data-name="imagebot 67" class="cls-4" x="2" y="305.83" width="597.97" height="32.46"/><rect id="imagebot_66" data-name="imagebot 66" class="cls-5" x="2" y="273.37" width="597.97" height="32.46"/><rect id="imagebot_65" data-name="imagebot 65" class="cls-4" x="2" y="242.95" width="597.97" height="30.43"/><rect id="imagebot_64" data-name="imagebot 64" class="cls-5" x="2" y="212.52" width="597.97" height="30.43"/><rect id="imagebot_63" data-name="imagebot 63" class="cls-4" x="2" y="182.09" width="597.97" height="30.43"/><rect id="imagebot_62" data-name="imagebot 62" class="cls-5" x="2" y="151.66" width="597.97" height="30.43"/><rect id="imagebot_61" data-name="imagebot 61" class="cls-4" x="2" y="121.24" width="597.97" height="30.43"/><rect id="imagebot_60" data-name="imagebot 60" class="cls-5" x="2" y="90.81" width="597.97" height="30.43"/><rect id="imagebot_59" data-name="imagebot 59" class="cls-4" x="2" y="60.38" width="597.97" height="30.43"/><rect id="imagebot_58" data-name="imagebot 58" class="cls-5" x="2" y="29.95" width="597.97" height="30.43"/><rect id="imagebot_57" data-name="imagebot 57" class="cls-4" x="2" y="-0.47" width="597.97" height="30.43"/></g><g id="imagebot_54" data-name="imagebot 54"><rect id="imagebot_55" data-name="imagebot 55" class="cls-6" x="2" y="-0.47" width="239.82" height="212.99"/></g><g id="imagebot_3" data-name="imagebot 3"><path id="imagebot_53" data-name="imagebot 53" class="cls-5" d="M12,187.39l7-1,2.67-8.7,2.82,8.61,7,.7-5.2,6.29,1.64,9.15-6-4.73-5.94,4.93,1.47-9.19L12,187.39Z"/><path id="imagebot_52" data-name="imagebot 52" class="cls-5" d="M51.46,187.39l7-1,2.66-8.7,2.82,8.61,7,.7-5.19,6.29,1.64,9.15-6-4.73-6,4.93,1.48-9.19-5.35-6.08Z"/><path id="imagebot_51" data-name="imagebot 51" class="cls-5" d="M92.48,187.39l7-1,2.66-8.7,2.82,8.61,7,.7-5.19,6.29,1.64,9.15-6-4.73-6,4.93,1.48-9.19-5.35-6.08Z"/><path id="imagebot_50" data-name="imagebot 50" class="cls-5" d="M131.93,187.39l6.95-1,2.66-8.7,2.83,8.61,7,.7-5.2,6.29,1.64,9.15-6-4.73-6,4.93,1.48-9.19-5.34-6.08Z"/><path id="imagebot_49" data-name="imagebot 49" class="cls-5" d="M171.37,187.39l7-1,2.66-8.7,2.82,8.61,7,.7-5.19,6.29,1.64,9.15-6-4.73-5.95,4.93,1.47-9.19-5.34-6.08Z"/><path id="imagebot_48" data-name="imagebot 48" class="cls-5" d="M212.39,187.39l7-1,2.66-8.7,2.82,8.61,7,.7-5.19,6.29,1.64,9.15-6-4.73-6,4.93,1.48-9.19-5.35-6.08Z"/><path id="imagebot_47" data-name="imagebot 47" class="cls-5" d="M32.53,167.11l6.95-1,2.67-8.7L45,166l7,.7L46.74,173l1.65,9.15-6-4.72-5.94,4.92,1.47-9.18-5.34-6.08Z"/><path id="imagebot_46" data-name="imagebot 46" class="cls-5" d="M12,144.79l7-1,2.67-8.69,2.82,8.6,7,.7-5.2,6.29,1.64,9.15-6-4.73-5.94,4.93,1.47-9.19L12,144.79Z"/><path id="imagebot_45" data-name="imagebot 45" class="cls-5" d="M32.53,124.51l6.95-1,2.67-8.7L45,123.44l7,.7-5.2,6.29,1.65,9.14-6-4.72-5.94,4.93,1.47-9.19-5.34-6.08Z"/><path id="imagebot_44" data-name="imagebot 44" class="cls-5" d="M12,102.2l7-1,2.67-8.7,2.82,8.61,7,.7-5.2,6.28,1.64,9.15-6-4.72-5.94,4.92,1.47-9.18L12,102.2Z"/><path id="imagebot_43" data-name="imagebot 43" class="cls-5" d="M32.53,81.91l6.95-1,2.67-8.69L45,80.84l7,.7-5.2,6.29L48.39,97l-6-4.73L36.4,97.18,37.87,88l-5.34-6.08Z"/><path id="imagebot_42" data-name="imagebot 42" class="cls-5" d="M12,59.6l7-1,2.67-8.7,2.82,8.61,7,.7-5.2,6.29,1.64,9.14-6-4.72-5.94,4.92,1.47-9.18L12,59.6Z"/><path id="imagebot_41" data-name="imagebot 41" class="cls-5" d="M32.53,39.31l6.95-1,2.67-8.69L45,38.24l7,.7-5.2,6.29,1.65,9.15-6-4.73L36.4,54.58l1.47-9.18-5.34-6.09Z"/><path id="imagebot_40" data-name="imagebot 40" class="cls-5" d="M12,17l7-1,2.67-8.7,2.82,8.61,7,.7-5.2,6.29,1.64,9.14-6-4.72-5.94,4.93,1.47-9.19L12,17Z"/><path id="imagebot_39" data-name="imagebot 39" class="cls-5" d="M72,167.11l7-1,2.66-8.7L84.41,166l7,.7L86.19,173l1.64,9.15-6-4.72-6,4.92,1.48-9.18L72,167.11Z"/><path id="imagebot_38" data-name="imagebot 38" class="cls-5" d="M51.46,144.79l7-1,2.66-8.69,2.82,8.6,7,.7-5.19,6.29,1.64,9.15-6-4.73-6,4.93,1.48-9.19-5.35-6.08Z"/><path id="imagebot_37" data-name="imagebot 37" class="cls-5" d="M72,124.51l7-1,2.66-8.7,2.82,8.61,7,.7-5.19,6.29,1.64,9.14-6-4.72-6,4.93,1.48-9.19L72,124.51Z"/><path id="imagebot_36" data-name="imagebot 36" class="cls-5" d="M51.46,102.2l7-1,2.66-8.7,2.82,8.61,7,.7-5.19,6.28,1.64,9.15-6-4.72-6,4.92,1.48-9.18-5.35-6.08Z"/><path id="imagebot_35" data-name="imagebot 35" class="cls-5" d="M72,81.91l7-1,2.66-8.69,2.82,8.6,7,.7-5.19,6.29L87.83,97l-6-4.73-6,4.93L77.32,88,72,81.91Z"/><path id="imagebot_34" data-name="imagebot 34" class="cls-5" d="M51.46,59.6l7-1,2.66-8.7,2.82,8.61,7,.7-5.19,6.29,1.64,9.14-6-4.72-6,4.92,1.48-9.18L51.46,59.6Z"/><path id="imagebot_33" data-name="imagebot 33" class="cls-5" d="M72,39.31l7-1,2.66-8.69,2.82,8.6,7,.7-5.19,6.29,1.64,9.15-6-4.73-6,4.93,1.48-9.18L72,39.31Z"/><path id="imagebot_32" data-name="imagebot 32" class="cls-5" d="M51.46,17l7-1,2.66-8.7,2.82,8.61,7,.7-5.19,6.29,1.64,9.14-6-4.72-6,4.93,1.48-9.19L51.46,17Z"/><path id="imagebot_31" data-name="imagebot 31" class="cls-5" d="M111.42,167.11l7-1,2.66-8.7,2.83,8.61,7,.7-5.2,6.28,1.64,9.15-6-4.72-6,4.92,1.48-9.18-5.34-6.08Z"/><path id="imagebot_30" data-name="imagebot 30" class="cls-5" d="M92.48,144.79l7-1,2.66-8.69,2.82,8.6,7,.7-5.19,6.29,1.64,9.15-6-4.73-6,4.93,1.48-9.19-5.35-6.08Z"/><path id="imagebot_29" data-name="imagebot 29" class="cls-5" d="M171.37,144.79l7-1,2.66-8.69,2.82,8.6,7,.7-5.19,6.29,1.64,9.15-6-4.73-5.95,4.93,1.47-9.19-5.34-6.08Z"/><path id="imagebot_28" data-name="imagebot 28" class="cls-5" d="M131.93,144.79l6.95-1,2.66-8.69,2.83,8.6,7,.7-5.2,6.29,1.64,9.15-6-4.73-6,4.93,1.48-9.19-5.34-6.08Z"/><path id="imagebot_27" data-name="imagebot 27" class="cls-5" d="M191.88,167.11l7-1,2.66-8.7,2.82,8.61,7,.7L206.1,173l1.64,9.15-6-4.72-5.95,4.92,1.47-9.18-5.34-6.08Z"/><path id="imagebot_26" data-name="imagebot 26" class="cls-5" d="M152.44,167.11l6.95-1,2.66-8.7,2.83,8.61,7,.7-5.2,6.28,1.64,9.15-6-4.72-5.94,4.92,1.47-9.18-5.34-6.08Z"/><path id="imagebot_25" data-name="imagebot 25" class="cls-5" d="M92.48,17l7-1,2.66-8.7,2.82,8.61,7,.7-5.19,6.29,1.64,9.14-6-4.72-6,4.93,1.48-9.19L92.48,17Z"/><path id="imagebot_24" data-name="imagebot 24" class="cls-5" d="M111.42,39.31l7-1L121,29.64l2.83,8.6,7,.7-5.2,6.29,1.64,9.15-6-4.73-6,4.93,1.48-9.18-5.34-6.09Z"/><path id="imagebot_23" data-name="imagebot 23" class="cls-5" d="M92.48,59.6l7-1,2.66-8.7,2.82,8.61,7,.7-5.19,6.29,1.64,9.14-6-4.72-6,4.92,1.48-9.18L92.48,59.6Z"/><path id="imagebot_22" data-name="imagebot 22" class="cls-5" d="M111.42,81.91l7-1L121,72.24l2.83,8.6,7,.7-5.2,6.29L127.27,97l-6-4.73-6,4.93L116.76,88l-5.34-6.08Z"/><path id="imagebot_21" data-name="imagebot 21" class="cls-5" d="M92.48,102.2l7-1,2.66-8.7,2.82,8.61,7,.7-5.19,6.28,1.64,9.15-6-4.72-6,4.92,1.48-9.18-5.35-6.08Z"/><path id="imagebot_20" data-name="imagebot 20" class="cls-5" d="M111.42,124.51l7-1,2.66-8.7,2.83,8.61,7,.7-5.2,6.29,1.64,9.14-6-4.72-6,4.93,1.48-9.19-5.34-6.08Z"/><path id="imagebot_19" data-name="imagebot 19" class="cls-5" d="M212.39,144.79l7-1,2.66-8.69,2.82,8.6,7,.7-5.19,6.29,1.64,9.15-6-4.73-6,4.93,1.48-9.19-5.35-6.08Z"/><path id="imagebot_18" data-name="imagebot 18" class="cls-5" d="M131.93,102.2l6.95-1,2.66-8.7,2.83,8.61,7,.7-5.2,6.28,1.64,9.15-6-4.72-6,4.92,1.48-9.18-5.34-6.08Z"/><path id="imagebot_17" data-name="imagebot 17" class="cls-5" d="M131.93,17l6.95-1,2.66-8.7,2.83,8.61,7,.7-5.2,6.29,1.64,9.14-6-4.72-6,4.93,1.48-9.19L131.93,17Z"/><path id="imagebot_16" data-name="imagebot 16" class="cls-5" d="M131.93,59.6l6.95-1,2.66-8.7,2.83,8.61,7,.7-5.2,6.29,1.64,9.14-6-4.72-6,4.92,1.48-9.18-5.34-6.08Z"/><path id="imagebot_15" data-name="imagebot 15" class="cls-5" d="M191.88,124.51l7-1,2.66-8.7,2.82,8.61,7,.7-5.19,6.29,1.64,9.14-6-4.72-5.95,4.93,1.47-9.19-5.34-6.08Z"/><path id="imagebot_14" data-name="imagebot 14" class="cls-5" d="M152.44,124.51l6.95-1,2.66-8.7,2.83,8.61,7,.7-5.2,6.29,1.64,9.14-6-4.72-5.94,4.93,1.47-9.19-5.34-6.08Z"/><path id="imagebot_13" data-name="imagebot 13" class="cls-5" d="M152.44,39.31l6.95-1,2.66-8.69,2.83,8.6,7,.7-5.2,6.29,1.64,9.15-6-4.73-5.94,4.93,1.47-9.18-5.34-6.09Z"/><path id="imagebot_12" data-name="imagebot 12" class="cls-5" d="M152.44,81.91l6.95-1,2.66-8.69,2.83,8.6,7,.7-5.2,6.29L168.29,97l-6-4.73-5.94,4.93L157.78,88l-5.34-6.08Z"/><path id="imagebot_11" data-name="imagebot 11" class="cls-5" d="M212.39,102.2l7-1,2.66-8.7,2.82,8.61,7,.7-5.19,6.28,1.64,9.15-6-4.72-6,4.92,1.48-9.18-5.35-6.08Z"/><path id="imagebot_10" data-name="imagebot 10" class="cls-5" d="M171.37,102.2l7-1,2.66-8.7,2.82,8.61,7,.7-5.19,6.28,1.64,9.15-6-4.72-5.95,4.92,1.47-9.18-5.34-6.08Z"/><path id="imagebot_9" data-name="imagebot 9" class="cls-5" d="M171.37,17l7-1L181,7.32l2.82,8.61,7,.7-5.19,6.29,1.64,9.14-6-4.72-5.95,4.93,1.47-9.19L171.37,17Z"/><path id="imagebot_8" data-name="imagebot 8" class="cls-5" d="M171.37,59.6l7-1,2.66-8.7,2.82,8.61,7,.7-5.19,6.29,1.64,9.14-6-4.72-5.95,4.92,1.47-9.18-5.34-6.08Z"/><path id="imagebot_7" data-name="imagebot 7" class="cls-5" d="M212.39,17l7-1L222,7.32l2.82,8.61,7,.7-5.19,6.29,1.64,9.14-6-4.72-6,4.93,1.48-9.19L212.39,17Z"/><path id="imagebot_6" data-name="imagebot 6" class="cls-5" d="M191.88,39.31l7-1,2.66-8.69,2.82,8.6,7,.7-5.19,6.29,1.64,9.15-6-4.73-5.95,4.93,1.47-9.18-5.34-6.09Z"/><path id="imagebot_5" data-name="imagebot 5" class="cls-5" d="M212.39,59.6l7-1,2.66-8.7,2.82,8.61,7,.7-5.19,6.29,1.64,9.14-6-4.72-6,4.92,1.48-9.18-5.35-6.08Z"/><path id="imagebot_4" data-name="imagebot 4" class="cls-5" d="M191.88,81.91l7-1,2.66-8.69,2.82,8.6,7,.7-5.19,6.29L207.74,97l-6-4.73-5.95,4.93L197.22,88l-5.34-6.08Z"/></g></g></g></g></g><g id="Layer_2" data-name="Layer 2"><g class="cls-7"><g id="layer1"><g id="g2656"><rect id="rect2630" class="cls-8" x="-28" y="310.25" width="628" height="112.75"/><rect id="rect2632" class="cls-9" x="-28" y="84.75" width="628" height="225.5"/><polygon id="rect2634" class="cls-8" points="-28 -28 600 -28 600 0 600 84.75 -28 84.75 -28 -28"/></g></g></g></g><g id="Layer_3" data-name="Layer 3"><line class="cls-10" x1="2" y1="401.2" x2="600" y2="-2"/></g></svg>